<svg xmlns="http://www.w3.org/2000/svg" version="1.1" xmlns:xlink="http://www.w3.org/1999/xlink" xmlns:svgjs="http://svgjs.com/svgjs" width="166" height="166"><svg width="166" height="166" viewBox="0 0 166 166" fill="none" xmlns="http://www.w3.org/2000/svg">
<path fill-rule="evenodd" clip-rule="evenodd" d="M83 166C128.84 166 166 128.84 166 83C166 37.1604 128.84 0 83 0C37.1604 0 0 37.1604 0 83C0 128.84 37.1604 166 83 166ZM90.5163 30.0765C90.666 28.8028 90.8156 27.008 90.9653 24.6922V22.7816C90.9653 22.6658 91.9382 22.55 93.8839 22.4342C95.9794 22.2026 98.449 22.0868 101.293 22.0868C104.286 21.9711 107.43 21.9711 110.722 22.0868C114.015 22.0868 116.859 22.2605 119.254 22.6079V34.0713C119.254 53.4086 119.628 72.5143 120.376 91.3883C121.125 110.262 121.2 128.036 120.601 144.711C115.961 144.711 110.872 144.768 105.334 144.884C99.7961 145.116 94.782 145 90.2917 144.537C90.1421 144.305 90.0672 143.9 90.0672 143.321C90.0672 142.163 89.9924 141.237 89.8427 140.542V137.589C89.5434 137.01 89.1692 136.605 88.7202 136.374C88.4208 136.026 88.0466 136.2 87.5976 136.895C85.3525 140.368 82.359 142.626 78.6171 143.668C74.8753 144.595 70.9089 144.826 66.718 144.363C58.1866 143.9 51.4512 142.221 46.5119 139.326C41.5727 136.316 37.8308 132.552 35.2863 128.036C32.8915 123.405 31.2451 118.252 30.3471 112.578C29.5987 106.904 29.1497 101.173 29 95.3831C29 91.3304 29.2993 87.3935 29.898 83.5724C30.6464 79.7513 31.6941 76.2775 33.0412 73.1511C34.538 69.9089 36.4089 67.1878 38.654 64.9878C41.0488 62.6719 43.8926 61.0508 47.1855 60.1245C51.2267 58.9666 55.6421 58.2718 60.4317 58.0403C65.3709 57.6929 70.0108 57.6929 74.3514 58.0403C78.692 58.2718 82.359 58.7929 85.3525 59.6034C88.346 60.414 89.9924 61.3403 90.2917 62.3824C90.1421 56.9402 90.0672 52.5401 90.0672 49.1822V41.1925V36.5029C90.2169 35.345 90.2917 34.3029 90.2917 33.3766C90.4414 32.3344 90.5163 31.2344 90.5163 30.0765ZM62.6768 80.967C59.0846 83.0513 56.9143 86.1198 56.166 90.1725C55.4176 91.7936 54.9686 93.4726 54.8189 95.2095C54.6692 96.9464 54.5944 98.6253 54.5944 100.246C54.5944 103.141 55.0434 105.978 55.9414 108.757C56.8395 111.42 58.1866 113.852 59.9826 116.052C61.7787 118.136 63.949 119.815 66.4935 121.089C69.038 122.363 71.8818 123 75.0249 123C78.7668 123 81.6855 122.363 83.7809 121.089C86.026 119.815 87.6725 118.078 88.7202 115.878C89.9176 113.678 90.5911 111.073 90.7408 108.062C91.0401 104.936 91.1898 101.52 91.1898 97.8148C91.1898 93.2989 91.0401 89.7672 90.7408 87.2198C90.5911 84.5566 90.0672 82.5302 89.1692 81.1407C88.2711 79.7512 86.8492 78.8828 84.9035 78.5354C83.1074 78.0723 80.6378 77.8407 77.4946 77.8407C71.3579 77.8407 66.4186 78.8828 62.6768 80.967Z" fill="#046B46"></path>
</svg><style>@media (prefers-color-scheme: light) { :root { filter: none; } }
@media (prefers-color-scheme: dark) { :root { filter: contrast(0.9090909090909091) brightness(1.5); } }
</style></svg>